<svg width="117" height="36" viewBox="0 0 117 36" fill="none" xmlns="http://www.w3.org/2000/svg">
<g clip-path="url(#clip0_22456_2725)">
<path d="M7.51746 10.5163C6.15535 10.5163 6.0987 10.573 6.0987 11.4242V15.4252C6.0987 18.4044 6.24045 18.8017 7.8294 18.9722L8.6522 19.0573C8.82266 19.1708 8.76575 19.6814 8.59582 19.7668C7.06324 19.7099 6.0987 19.6814 4.99189 19.6814C3.77179 19.6814 2.80672 19.7381 1.70044 19.7668C1.53024 19.6814 1.47359 19.2275 1.64379 19.0573L2.12593 18.9722C3.71515 18.6884 3.77206 18.4044 3.77206 15.4252V5.20988C3.77206 2.23063 3.5734 1.74823 2.09774 1.63468L1.36004 1.57803C1.18984 1.46448 1.24675 0.953621 1.41668 0.868523C2.80698 0.896977 3.77205 0.953621 4.99216 0.953621C6.0987 0.953621 7.06351 0.925432 8.28361 0.868523C8.45408 0.953621 8.51072 1.46448 8.34052 1.57803L7.80148 1.63468C6.15561 1.80514 6.09897 2.23063 6.09897 5.20988V8.47341C6.09897 9.35286 6.15561 9.38131 7.51772 9.38131H15.6329C16.9951 9.38131 17.0517 9.35259 17.0517 8.47341V5.20988C17.0517 2.23063 16.9953 1.80514 15.321 1.63468L14.782 1.57803C14.6115 1.46448 14.6684 0.953621 14.8383 0.868523C16.1435 0.925432 17.1086 0.953621 18.2718 0.953621C19.435 0.953621 20.3434 0.925432 21.6202 0.868523C21.7901 0.953621 21.847 1.46448 21.6768 1.57803L21.0808 1.63468C19.4353 1.80514 19.3783 2.23063 19.3783 5.20988V15.4252C19.3783 18.4044 19.4353 18.7733 21.0808 18.9722L21.7619 19.0573C21.9321 19.1708 21.8752 19.6814 21.7053 19.7668C20.3432 19.7099 19.3783 19.6814 18.2715 19.6814C17.1083 19.6814 16.0866 19.7099 14.8381 19.7668C14.6681 19.6814 14.6112 19.2275 14.7817 19.0573L15.3207 18.9722C17.0514 18.6884 17.0514 18.4044 17.0514 15.4252V11.4242C17.0514 10.573 16.9951 10.5163 15.6327 10.5163H7.51746Z" fill="#221F1F"/>
<path d="M21.3071 10.5163C21.3071 4.84131 25.5631 0.499952 31.4086 0.499952C37.9633 0.499952 41.2545 5.23862 41.2545 10.2326C41.2545 15.9645 36.8847 20.1354 31.4086 20.1354C25.1092 20.1354 21.3071 15.6241 21.3071 10.5163ZM38.417 11.1123C38.417 6.43026 36.3457 1.37939 30.9259 1.37939C27.9749 1.37939 24.1444 3.3941 24.1444 9.60843C24.1444 13.808 26.1873 19.2562 31.7772 19.2562C35.1822 19.2562 38.417 16.7022 38.417 11.1123Z" fill="#221F1F"/>
<path d="M42.4463 10.5163C42.4463 4.84131 46.7026 0.499952 52.5478 0.499952C59.1025 0.499952 62.394 5.23862 62.394 10.2326C62.394 15.9645 58.0241 20.1354 52.5478 20.1354C46.2486 20.1354 42.446 15.6241 42.446 10.5163M59.5567 11.1123C59.5567 6.43026 57.4851 1.37939 52.0656 1.37939C49.1143 1.37939 45.2838 3.3941 45.2838 9.60843C45.2838 13.808 47.327 19.2562 52.9169 19.2562C56.3219 19.2562 59.5567 16.7022 59.5567 11.1123Z" fill="#221F1F"/>
<path d="M64.4942 5.21017C64.4942 2.23092 64.4373 1.7767 62.7917 1.63496L62.0824 1.57805C61.912 1.46477 61.9689 0.953907 62.1388 0.868809C63.5294 0.925453 64.4373 0.953907 65.7143 0.953907C66.8208 0.953907 67.7856 0.925453 69.0057 0.868809C69.1759 0.953907 69.2328 1.46477 69.0626 1.57805L68.5236 1.63496C66.8777 1.80516 66.8211 2.23092 66.8211 5.21017V8.47343C66.8211 9.01248 66.8777 9.55153 67.1897 9.55153C67.4452 9.55153 67.7856 9.3816 67.9843 9.23932C68.3816 8.89893 69.1195 8.16123 69.4318 7.87748L72.4961 4.84132C73.0351 4.33046 74.4257 2.88325 74.7095 2.48595C74.8512 2.2873 74.9081 2.14555 74.9081 2.032C74.9081 1.91845 74.7948 1.83335 74.4257 1.74825L73.6598 1.57805C73.4612 1.3794 73.4894 1.01082 73.7162 0.868809C74.7095 0.925453 75.8445 0.953907 76.8375 0.953907C77.8305 0.953907 78.7955 0.925453 79.6468 0.868809C79.8454 1.01082 79.8736 1.40812 79.7037 1.57805C78.9657 1.63496 77.8592 1.91871 77.0646 2.37266C76.27 2.82687 74.6813 4.16026 73.0923 5.66412L70.5386 8.07613C70.1413 8.47344 69.8857 8.72847 69.8857 8.95557C69.8857 9.15422 70.0559 9.38133 70.425 9.83528C73.1205 12.9283 75.3054 15.4818 77.5188 17.8088C78.2001 18.4898 78.8242 18.8587 79.7888 18.9722L80.5549 19.0576C80.7536 19.1993 80.6967 19.6817 80.498 19.7668C79.7606 19.7099 78.6538 19.6817 77.3201 19.6817C76.1567 19.6817 75.1637 19.7099 73.8585 19.7668C73.6598 19.7099 73.5747 19.2275 73.7449 19.0576L74.3975 18.9438C74.7948 18.8871 75.0788 18.802 75.0788 18.6603C75.0788 18.4901 74.8802 18.263 74.6815 18.0074C74.1422 17.3264 73.4045 16.5605 72.3262 15.3404L70.0564 12.7863C68.439 10.9703 67.9848 10.403 67.304 10.403C66.8783 10.403 66.8216 10.7716 66.8216 11.7649V15.4255C66.8216 18.4047 66.8783 18.802 68.4672 18.9722L69.2336 19.0576C69.4036 19.1709 69.3469 19.6817 69.1767 19.7668C67.7862 19.7099 66.8216 19.6817 65.7151 19.6817C64.5516 19.6817 63.5871 19.7099 62.4236 19.7668C62.2537 19.6817 62.1968 19.256 62.367 19.0576L62.9345 18.9722C64.4383 18.7451 64.4952 18.4047 64.4952 15.4255V5.21017H64.4942Z" fill="#221F1F"/>
<path d="M83.9015 5.21017C83.9015 2.25911 83.8449 1.83361 82.1708 1.63496L81.7169 1.57805C81.5464 1.46477 81.6031 0.953907 81.7732 0.868809C82.9934 0.925453 83.9584 0.953907 85.1214 0.953907H90.456C92.272 0.953907 93.9463 0.953907 94.2867 0.868809C94.4569 1.35121 94.6274 3.39411 94.741 4.64267C94.6277 4.81286 94.1732 4.86951 94.0317 4.69931C93.6059 3.36566 93.3507 2.37266 91.875 2.00381C91.279 1.8618 90.3711 1.83361 89.1226 1.83361H87.0797C86.2282 1.83361 86.2282 1.88999 86.2282 2.96862V8.64363C86.2282 9.43824 86.3135 9.43824 87.1648 9.43824H88.8104C90.0023 9.43824 90.8817 9.3816 91.2224 9.26831C91.5628 9.15449 91.7614 8.98456 91.9034 8.27505L92.1303 7.11159C92.272 6.94113 92.7544 6.94113 92.868 7.13978C92.868 7.82084 92.7544 8.92738 92.7544 10.006C92.7544 11.0275 92.868 12.1058 92.868 12.73C92.7544 12.9286 92.272 12.9286 92.1303 12.7584L91.8747 11.6519C91.7614 11.141 91.5628 10.7155 90.9953 10.5735C90.598 10.4602 89.9169 10.4318 88.8101 10.4318H87.1645C86.3133 10.4318 86.2279 10.4602 86.2279 11.1982V15.1989C86.2279 16.7027 86.3133 17.6675 86.7672 18.1499C87.1076 18.4903 87.7036 18.8025 90.2007 18.8025C92.3853 18.8025 93.2086 18.6893 93.8328 18.3771C94.3436 18.0933 95.1095 17.1 95.8475 15.6246C96.0461 15.4826 96.4435 15.568 96.557 15.8233C96.3584 16.816 95.6488 19.0012 95.28 19.7674C92.7262 19.7104 90.2009 19.6823 87.6756 19.6823H85.1216C83.9015 19.6823 82.937 19.7104 81.2627 19.7674C81.0925 19.6823 81.0358 19.228 81.2063 19.0581L82.1426 18.9727C83.76 18.8307 83.9018 18.4052 83.9018 15.426V5.21017H83.9015Z" fill="#221F1F"/>
<path d="M99.0824 5.2386C99.0824 2.54284 98.9971 2.06044 97.8336 1.91869L96.9257 1.80514C96.7271 1.66313 96.7271 1.20918 96.9542 1.0959C98.5428 0.953887 100.501 0.868523 103.282 0.868523C105.041 0.868523 106.715 1.01053 108.02 1.72004C109.382 2.42955 110.376 3.70603 110.376 5.69229C110.376 8.38805 108.247 9.86345 106.829 10.431C106.687 10.6014 106.829 10.8852 106.97 11.112C109.24 14.7723 110.744 17.0426 112.673 18.66C113.156 19.0855 113.865 19.3977 114.632 19.4546C114.773 19.5112 114.802 19.7381 114.66 19.8516C114.404 19.9367 113.95 19.9936 113.411 19.9936C110.999 19.9936 109.552 19.2844 107.538 16.4182C106.8 15.3685 105.637 13.4105 104.757 12.1337C104.331 11.5096 103.877 11.2258 102.742 11.2258C101.465 11.2258 101.409 11.254 101.409 11.85V15.4254C101.409 18.4047 101.465 18.7451 103.111 18.9722L103.707 19.0576C103.877 19.1993 103.82 19.6817 103.65 19.7668C102.373 19.7099 101.409 19.6817 100.274 19.6817C99.0816 19.6817 98.0602 19.7099 96.7263 19.7668C96.5563 19.6817 96.4994 19.2559 96.6696 19.0576L97.3791 18.9722C99.0247 18.7735 99.0816 18.4047 99.0816 15.4254V5.2386H99.0824ZM101.409 9.29621C101.409 9.80707 101.409 10.119 101.494 10.2326C101.579 10.3177 102.005 10.3746 103.452 10.3746C104.473 10.3746 105.552 10.2608 106.375 9.63661C107.141 9.04065 107.794 8.04739 107.794 6.11804C107.794 3.87649 106.403 1.74823 103.254 1.74823C101.494 1.74823 101.409 1.86178 101.409 2.65639V9.29621H101.409Z" fill="#221F1F"/>
<path d="M3.90277 28.4392C3.90277 28.9229 3.95649 28.9229 4.4942 28.9229H5.71271C6.44748 28.9229 7.02083 28.887 7.23597 28.8155C7.4333 28.7437 7.57637 28.6543 7.68407 28.1881L7.84523 27.4715C7.93485 27.3637 8.23961 27.3637 8.31114 27.4715C8.31114 27.9015 8.23961 28.6182 8.23961 29.2814C8.23961 29.9446 8.31114 30.6073 8.31114 31.0195C8.23961 31.1272 7.97075 31.1272 7.84523 31.0195L7.66625 30.3207C7.57637 29.9981 7.4333 29.7473 7.0929 29.6399C6.84186 29.5681 6.39376 29.5503 5.71298 29.5503H4.49447C3.95675 29.5503 3.90303 29.5681 3.90303 30.034V32.525C3.90303 34.4067 3.93893 34.6756 4.99602 34.7649L5.60554 34.8187C5.71324 34.8905 5.67734 35.213 5.56964 35.2668C4.51255 35.2309 3.9033 35.213 3.18634 35.213C2.39812 35.213 1.7886 35.2309 0.946388 35.2668C0.838951 35.213 0.80305 34.9264 0.910753 34.8187L1.35885 34.7649C2.39812 34.6394 2.43375 34.4065 2.43375 32.525V26.074C2.43375 24.1922 2.39785 23.9415 1.35885 23.8159L1.07217 23.78C0.964472 23.7082 1.00037 23.3857 1.10781 23.3319C1.86067 23.3678 2.46992 23.3857 3.18661 23.3857H6.48418C7.63115 23.3857 8.67042 23.3857 8.90338 23.3319C8.90338 24.1563 8.92119 25.0166 8.95709 25.6974C8.90338 25.8051 8.6526 25.8586 8.52708 25.7514C8.38374 24.9448 8.1686 24.2818 7.27267 24.0489C6.87829 23.9415 6.28712 23.9415 5.53427 23.9415H4.44128C3.90383 23.9415 3.90383 23.9771 3.90383 24.6581V28.4392H3.90277Z" fill="#221F1F"/>
<path d="M19.7268 27.8836C19.7268 26.7726 19.6909 24.7116 19.3864 24.1741C19.2609 23.959 18.9386 23.8337 18.4905 23.7978L18.0424 23.7619C17.9347 23.6364 17.9706 23.4035 18.0783 23.3319C18.7591 23.3678 19.4223 23.3856 20.1212 23.3856C20.8738 23.3856 21.3575 23.3678 22.0029 23.3319C22.146 23.4213 22.1284 23.6545 22.0385 23.7619L21.6085 23.7978C21.1604 23.8337 20.82 23.9952 20.7123 24.2281C20.4616 24.8195 20.4616 26.8803 20.4616 27.8839V29.9087C20.4616 31.4676 20.2108 33.1167 19.2072 34.1918C18.4365 35.0338 17.1105 35.5 15.7846 35.5C14.5483 35.5 13.3114 35.2667 12.4333 34.5141C11.4837 33.7254 11.0356 32.4175 11.0356 30.2847V26.0556C11.0356 24.1919 10.9997 23.8872 9.96066 23.7976L9.51256 23.7617C9.40486 23.6899 9.44076 23.3854 9.54819 23.3316C10.4444 23.3676 11.0536 23.3854 11.7706 23.3854C12.4876 23.3854 13.0965 23.3676 13.9749 23.3316C14.0824 23.3854 14.118 23.6899 14.0106 23.7617L13.5805 23.7976C12.5413 23.8872 12.5054 24.1919 12.5054 26.0556V29.9265C12.5054 32.8116 13.4016 34.7112 16.1431 34.7112C18.7418 34.7112 19.7273 32.6683 19.7273 29.9443V27.8836H19.7268Z" fill="#221F1F"/>
<path d="M24.0993 26.0918C24.0993 24.3895 24.0453 24.0848 23.3108 23.9951L22.7375 23.9233C22.6117 23.834 22.6117 23.5471 22.7553 23.4752C23.7586 23.3859 24.9952 23.3322 26.7515 23.3322C27.8625 23.3322 28.9196 23.4215 29.744 23.8696C30.6043 24.3177 31.2314 25.1238 31.2314 26.3784C31.2314 28.0809 29.8873 29.0125 28.9911 29.3713C28.9018 29.479 28.9911 29.6579 29.0808 29.8015C30.5144 32.113 31.4643 33.5467 32.6828 34.5681C32.9876 34.837 33.4357 35.0338 33.9194 35.0699C34.009 35.1058 34.0269 35.2492 33.9372 35.3207C33.7758 35.3747 33.4891 35.4103 33.1487 35.4103C31.6257 35.4103 30.7115 34.9625 29.4392 33.152C28.9736 32.4891 28.2386 31.2527 27.683 30.4462C27.4144 30.0523 27.1277 29.8728 26.4108 29.8728C25.6045 29.8728 25.5686 29.8909 25.5686 30.2672V32.5252C25.5686 34.407 25.6045 34.6218 26.6438 34.7654L27.02 34.8192C27.1278 34.9085 27.0918 35.2135 26.9841 35.2673C26.1778 35.2314 25.5686 35.2135 24.8516 35.2135C24.099 35.2135 23.4539 35.2314 22.6117 35.2673C22.5042 35.2135 22.4683 34.9447 22.576 34.8192L23.0241 34.7654C24.0634 34.6399 24.099 34.407 24.099 32.5252V26.092L24.0993 26.0918ZM25.5688 28.6543C25.5688 28.9769 25.5688 29.1739 25.6226 29.2457C25.6763 29.2994 25.9451 29.3351 26.8589 29.3351C27.504 29.3351 28.1851 29.2636 28.7047 28.8694C29.1885 28.4931 29.6009 27.8655 29.6009 26.6473C29.6009 25.2315 28.7231 23.8874 26.7336 23.8874C25.6226 23.8874 25.5691 23.9592 25.5691 24.4608V28.6543H25.5688Z" fill="#221F1F"/>
<path d="M45.1205 32.1665C45.1205 32.7045 45.1205 34.837 45.1742 35.3026C45.1383 35.4103 45.0306 35.5 44.8338 35.5C44.6184 35.1952 44.099 34.5681 42.5399 32.7941L38.3823 28.0629C37.8985 27.5076 36.68 26.0381 36.3035 25.6437H36.2678C36.196 25.8585 36.1779 26.2707 36.1779 26.8085V30.715C36.1779 31.5575 36.196 33.8868 36.5005 34.4245C36.6082 34.6213 36.9667 34.729 37.4148 34.7649L37.9701 34.8186C38.0778 34.9622 38.0594 35.1771 37.9342 35.2667C37.1279 35.2308 36.5005 35.213 35.8376 35.213C35.085 35.213 34.6012 35.2308 33.9739 35.2667C33.8481 35.1771 33.8303 34.9263 33.938 34.8186L34.4215 34.7649C34.8339 34.7112 35.1206 34.6035 35.2102 34.4064C35.461 33.7613 35.4429 31.575 35.4429 30.715V25.5362C35.4429 25.0342 35.4251 24.6579 35.0488 24.2457C34.798 23.9949 34.3677 23.8694 33.9377 23.8156L33.633 23.7797C33.5255 23.672 33.5255 23.4032 33.6689 23.3316C34.4215 23.3854 35.3714 23.3854 35.694 23.3854C35.9806 23.3854 36.2854 23.3676 36.5183 23.3316C36.8766 24.2454 38.9913 26.6111 39.5824 27.2741L41.3208 29.2274C42.5572 30.6071 43.4355 31.6107 44.2775 32.471H44.3134C44.3852 32.3816 44.3852 32.0947 44.3852 31.7181V27.8834C44.3852 27.0412 44.3671 24.7113 44.0267 24.1739C43.919 24.0127 43.6323 23.9053 42.9156 23.8156L42.6109 23.7797C42.4854 23.672 42.5034 23.3854 42.6468 23.3316C43.4712 23.3676 44.0804 23.3854 44.7615 23.3854C45.5319 23.3854 45.9978 23.3676 46.6071 23.3316C46.7504 23.421 46.7504 23.672 46.643 23.7797L46.3922 23.8156C45.8188 23.9053 45.4603 24.0483 45.3885 24.1919C45.0841 24.8368 45.12 27.0592 45.12 27.8834V32.1662L45.1205 32.1665Z" fill="#221F1F"/>
<path d="M49.3319 26.1096C49.3319 24.2098 49.296 23.9053 48.2386 23.8159L47.7905 23.78C47.6831 23.7082 47.719 23.3857 47.8264 23.3319C48.7226 23.3678 49.3319 23.3857 50.0842 23.3857C50.8365 23.3857 51.4104 23.3678 52.306 23.3319C52.4138 23.3857 52.4497 23.7082 52.3419 23.78L51.8939 23.8159C50.8368 23.9053 50.8009 24.2098 50.8009 26.1096V32.4891C50.8009 34.3889 50.8368 34.6397 51.8939 34.7652L52.3419 34.8189C52.4497 34.8907 52.4138 35.2133 52.306 35.267C51.4104 35.2311 50.8011 35.2133 50.0842 35.2133C49.3316 35.2133 48.7223 35.2311 47.8264 35.267C47.7187 35.2133 47.6831 34.9266 47.7905 34.8189L48.2386 34.7652C49.296 34.6397 49.3319 34.3889 49.3319 32.4891V26.1096Z" fill="#221F1F"/>
<path d="M56.9304 35.5C55.4252 35.5 54.4753 35.0338 54.1349 34.837C53.9197 34.4426 53.6868 33.1701 53.6509 32.3279C53.7405 32.2024 54.0094 32.1668 54.0812 32.2742C54.3497 33.1882 55.0845 34.9444 57.1633 34.9444C58.6688 34.9444 59.4035 33.9586 59.4035 32.8837C59.4035 32.0952 59.2421 31.2168 57.934 30.3749L56.2315 29.2638C55.3353 28.6724 54.2963 27.6509 54.2963 26.1814C54.2963 24.4792 55.6222 23.0992 57.9521 23.0992C58.5076 23.0992 59.153 23.2069 59.6187 23.3325C59.8519 23.404 60.1027 23.4399 60.2458 23.4399C60.4072 23.8702 60.5683 24.8735 60.5683 25.6264C60.4965 25.7338 60.2099 25.7878 60.1202 25.6801C59.8873 24.8201 59.4035 23.6553 57.6832 23.6553C55.9629 23.6553 55.5507 24.8198 55.5507 25.6442C55.5507 26.6837 56.4107 27.4363 57.074 27.8485L58.5076 28.7447C59.6365 29.4436 60.7473 30.4829 60.7473 32.1854C60.7473 34.1565 59.2599 35.5005 56.9304 35.5005" fill="#221F1F"/>
<path d="M66.1599 29.4247C65.2998 29.4247 65.2637 29.4606 65.2637 29.9981V32.525C65.2637 34.4067 65.3533 34.6575 66.3567 34.7649L66.8763 34.8187C66.984 34.8905 66.9481 35.213 66.8404 35.2668C65.8729 35.2309 65.2634 35.213 64.5645 35.213C63.7941 35.213 63.1846 35.2489 62.4857 35.2668C62.378 35.213 62.3424 34.9264 62.4498 34.8187L62.7543 34.7649C63.758 34.5857 63.7939 34.4065 63.7939 32.525V26.074C63.7939 24.1922 63.6683 23.8875 62.7365 23.8159L62.2709 23.78C62.1632 23.7082 62.1991 23.3857 62.3065 23.3319C63.1846 23.3498 63.7941 23.3857 64.5648 23.3857C65.2637 23.3857 65.8732 23.3678 66.6433 23.3319C66.751 23.3857 66.7869 23.7082 66.6792 23.78L66.3388 23.8159C65.2996 23.9234 65.2637 24.192 65.2637 26.074V28.1347C65.2637 28.6902 65.2996 28.708 66.1599 28.708H71.2849C72.1452 28.708 72.1811 28.6902 72.1811 28.1347V26.074C72.1811 24.1922 72.1452 23.9234 71.0879 23.8159L70.7475 23.78C70.6398 23.7082 70.6757 23.3857 70.7831 23.3319C71.6078 23.3678 72.2168 23.3857 72.9515 23.3857C73.6863 23.3857 74.2597 23.3678 75.0662 23.3319C75.1739 23.3857 75.2096 23.7082 75.1021 23.78L74.7261 23.8159C73.6866 23.9234 73.6507 24.192 73.6507 26.074V32.525C73.6507 34.4067 73.6866 34.6397 74.7261 34.7649L75.1561 34.8187C75.2638 34.8905 75.2277 35.213 75.1202 35.2668C74.2602 35.2309 73.6507 35.213 72.9518 35.213C72.217 35.213 71.5721 35.2309 70.7834 35.2668C70.6759 35.213 70.6403 34.9264 70.7477 34.8187L71.0881 34.7649C72.1814 34.5857 72.1814 34.4065 72.1814 32.525V29.9981C72.1814 29.4604 72.1455 29.4247 71.2852 29.4247H66.1601H66.1599Z" fill="#221F1F"/>
<path d="M78.0589 26.1096C78.0589 24.2098 78.023 23.9053 76.9656 23.8159L76.5176 23.78C76.4101 23.7082 76.446 23.3857 76.5535 23.3319C77.4496 23.3678 78.0589 23.3857 78.8115 23.3857C79.5641 23.3857 80.1377 23.3678 81.0334 23.3319C81.1411 23.3857 81.177 23.7082 81.0693 23.78L80.6212 23.8159C79.5641 23.9053 79.5282 24.2098 79.5282 26.1096V32.4891C79.5282 34.3889 79.5641 34.6397 80.6212 34.7652L81.0693 34.8189C81.177 34.8907 81.1411 35.2133 81.0334 35.267C80.1377 35.2311 79.5285 35.2133 78.8115 35.2133C78.0589 35.2133 77.4496 35.2311 76.5535 35.267C76.4458 35.2133 76.4101 34.9266 76.5176 34.8189L76.9656 34.7652C78.023 34.6397 78.0589 34.3889 78.0589 32.4891V26.1096Z" fill="#221F1F"/>
<path d="M93.5781 32.1665C93.5781 32.7045 93.5781 34.837 93.6319 35.3026C93.5962 35.4103 93.4888 35.5 93.2915 35.5C93.0763 35.1952 92.5567 34.5681 90.9975 32.7941L86.8402 28.0629C86.3562 27.5076 85.1377 26.0381 84.7614 25.6437H84.7255C84.6537 25.8585 84.6361 26.2707 84.6361 26.8085V30.715C84.6361 31.5575 84.654 33.8868 84.9587 34.4245C85.0661 34.6213 85.4246 34.729 85.8727 34.7649L86.4283 34.8186C86.5357 34.9622 86.5176 35.1771 86.3924 35.2667C85.5858 35.2308 84.9587 35.213 84.2957 35.213C83.5429 35.213 83.0592 35.2308 82.4318 35.2667C82.3063 35.1771 82.2885 34.9263 82.3959 34.8186L82.8799 34.7649C83.2921 34.7112 83.5788 34.6035 83.6684 34.4064C83.9192 33.7613 83.9014 31.575 83.9014 30.715V25.5362C83.9014 25.0342 83.8833 24.6579 83.507 24.2457C83.2562 23.9949 82.8262 23.8694 82.3959 23.8156L82.0914 23.7797C81.9837 23.672 81.9837 23.4032 82.1273 23.3316C82.8799 23.3854 83.8296 23.3854 84.1521 23.3854C84.4388 23.3854 84.7436 23.3676 84.9765 23.3316C85.335 24.2454 87.4497 26.6111 88.0409 27.2741L89.779 29.2274C91.0156 30.6071 91.8937 31.6107 92.7362 32.471H92.7718C92.8436 32.3816 92.8436 32.0947 92.8436 31.7181V27.8834C92.8436 27.0412 92.8258 24.7113 92.4852 24.1739C92.3777 24.0127 92.0913 23.9053 91.3741 23.8156L91.0696 23.7797C90.9441 23.672 90.9619 23.3854 91.1055 23.3316C91.9299 23.3676 92.5391 23.3854 93.2199 23.3854C93.9903 23.3854 94.4565 23.3676 95.0655 23.3316C95.2091 23.421 95.2091 23.672 95.1014 23.7797L94.8506 23.8156C94.2773 23.9053 93.9188 24.0483 93.8473 24.1919C93.5425 24.8368 93.5784 27.0592 93.5784 27.8834V32.1662L93.5781 32.1665Z" fill="#221F1F"/>
<path d="M106.391 33.3853C106.391 34.1022 106.499 34.5322 106.821 34.6577C106.875 34.7117 106.875 34.8189 106.803 34.8726C106.588 34.8726 106.266 34.9444 105.925 35.034C104.976 35.2851 103.685 35.5 102.718 35.5C100.585 35.5 98.6322 34.9085 97.2523 33.5108C96.1771 32.4356 95.6038 31.0198 95.6038 29.4431C95.6038 27.8663 96.1056 26.3787 97.2164 25.1958C98.4173 23.9417 100.191 23.0992 102.897 23.0992C103.919 23.0992 104.868 23.2965 105.173 23.3681C105.514 23.4394 106.069 23.5649 106.284 23.5292C106.284 24.1207 106.392 25.0525 106.553 26.1277C106.499 26.2707 106.177 26.2888 106.069 26.1814C105.567 24.2462 104.223 23.6367 102.396 23.6367C98.9191 23.6367 97.3959 26.1099 97.3959 28.7976C97.3959 32.2383 99.1699 34.9442 102.772 34.9442C103.883 34.9442 104.546 34.7115 104.743 34.4067C104.833 34.2812 104.922 33.9586 104.922 33.3853V32.6686C104.922 31.1631 104.868 31.0557 103.758 30.9302L102.969 30.8408C102.825 30.769 102.844 30.4464 102.969 30.3927C103.488 30.4286 104.474 30.4464 105.532 30.4464C106.23 30.4464 106.84 30.4286 107.431 30.3927C107.557 30.4645 107.574 30.7331 107.449 30.8408L107.163 30.8767C106.41 30.9663 106.392 31.4681 106.392 32.3822V33.3855L106.391 33.3853Z" fill="#221F1F"/>
<path d="M111.284 35.5C109.778 35.5 108.829 35.0338 108.488 34.837C108.273 34.4426 108.04 33.1701 108.004 32.3279C108.094 32.2024 108.363 32.1668 108.434 32.2742C108.703 33.1882 109.438 34.9444 111.517 34.9444C113.022 34.9444 113.757 33.9586 113.757 32.8837C113.757 32.0952 113.595 31.2168 112.287 30.3749L110.585 29.2638C109.689 28.6724 108.65 27.6509 108.65 26.1814C108.65 24.4792 109.976 23.0992 112.305 23.0992C112.861 23.0992 113.506 23.2069 113.972 23.3325C114.205 23.404 114.456 23.4399 114.599 23.4399C114.76 23.8702 114.922 24.8735 114.922 25.6264C114.85 25.7338 114.563 25.7878 114.474 25.6801C114.241 24.8201 113.757 23.6553 112.036 23.6553C110.316 23.6553 109.904 24.8198 109.904 25.6442C109.904 26.6837 110.764 27.4363 111.427 27.8485L112.861 28.7447C113.99 29.4436 115.101 30.4829 115.101 32.1854C115.101 34.1565 113.613 35.5005 111.284 35.5005" fill="#221F1F"/>
<path d="M116.156 2.39154C116.156 3.37256 115.336 4.17887 114.328 4.17887C113.32 4.17887 112.501 3.37256 112.501 2.39154C112.501 1.41051 113.321 0.6042 114.328 0.6042C115.336 0.6042 116.156 1.41051 116.156 2.39154ZM112.931 2.39154C112.931 3.21114 113.576 3.8563 114.328 3.8563C115.081 3.8563 115.726 3.21141 115.726 2.39154C115.726 1.57167 115.094 0.913215 114.328 0.913215C113.562 0.913215 112.931 1.5581 112.931 2.39154ZM113.697 1.98838C113.697 1.80037 113.656 1.71952 113.522 1.70623H113.455C113.441 1.65251 113.441 1.55837 113.482 1.54507C113.804 1.53151 114.073 1.51821 114.328 1.51821C114.664 1.51821 115.094 1.58549 115.094 2.00195C115.094 2.20352 114.947 2.33782 114.812 2.39154C114.785 2.40483 114.785 2.43196 114.812 2.49897C114.973 2.7814 115.094 2.98271 115.202 3.04999C115.256 3.09014 115.283 3.11727 115.336 3.13057C115.363 3.13057 115.363 3.22471 115.336 3.238C115.256 3.2513 115.202 3.2513 115.121 3.2513C114.88 3.2513 114.705 3.15716 114.557 2.95558C114.476 2.83458 114.422 2.72714 114.342 2.59285C114.315 2.53913 114.261 2.51227 114.207 2.51227C114.167 2.51227 114.154 2.55243 114.154 2.57955V2.78113C114.154 2.996 114.153 3.04972 114.328 3.07658L114.382 3.08988C114.409 3.10317 114.409 3.22444 114.382 3.23774C114.221 3.23774 114.1 3.22444 113.925 3.22444C113.75 3.22444 113.616 3.23774 113.481 3.23774C113.441 3.22444 113.441 3.10317 113.454 3.08988L113.522 3.07658C113.696 3.03643 113.696 3.0093 113.696 2.78113V1.98812L113.697 1.98838ZM114.154 2.25724C114.154 2.35138 114.167 2.35138 114.301 2.35138C114.503 2.35138 114.557 2.17666 114.557 2.06896C114.557 1.84079 114.463 1.71952 114.315 1.71952C114.167 1.71952 114.154 1.74665 114.154 1.82723V2.25724Z" fill="#221F1F"/>
</g>
<defs>
<clipPath id="clip0_22456_2725">
<rect width="115.311" height="35" fill="white" transform="translate(0.844482 0.5)"/>
</clipPath>
</defs>
</svg>
