<?xml version="1.0" standalone="no"?>
<!DOCTYPE svg PUBLIC "-//W3C//DTD SVG 1.1//EN" "http://www.w3.org/Graphics/SVG/1.1/DTD/svg11.dtd">
<!--Generator: Xara Designer (www.xara.com), SVG filter version: 5.0.0.2-->
<svg stroke-width="0.501" stroke-linejoin="bevel" fill-rule="evenodd" xmlns:xlink="http://www.w3.org/1999/xlink" xmlns="http://www.w3.org/2000/svg" version="1.1" overflow="visible" width="177pt" height="32.25pt" viewBox="0 0 177 32.25">
 <defs>
  <marker id="DefaultArrow2" markerUnits="strokeWidth" viewBox="0 0 1 1" markerWidth="1" markerHeight="1" overflow="visible" orient="auto">
   <!-- REF_ARROW_STRAIGHT (-2) -->
   <g transform="scale(0.0092592592)">
    <!-- 1/108 -->
    <path d="M -9 54 L -9 -54 L 117 0 z"/>
   </g>
  </marker>
  <marker id="DefaultArrow3" markerUnits="strokeWidth" viewBox="0 0 1 1" markerWidth="1" markerHeight="1" overflow="visible" orient="auto">
   <!-- REF_ARROW_ANGLED -->
   <g transform="scale(0.0092592592)">
    <path d="M -27 54 L -9 0 L -27 -54 L 135 0 z"/>
   </g>
  </marker>
  <marker id="DefaultArrow4" markerUnits="strokeWidth" viewBox="0 0 1 1" markerWidth="1" markerHeight="1" overflow="visible" orient="auto">
   <!-- REF_ARROW_ROUNDED -->
   <g transform="scale(0.0092592592)">
    <path d="M -9,0 L -9,-45 C -9,-51.708 2.808,-56.580 9,-54 L 117,-9 C 120.916,-7.369 126.000,-4.242 126,0 C 126,4.242 120.916,7.369 117,9 L 9,54 C 2.808,56.580 -9,51.708 -9,45 z"/>
   </g>
  </marker>
  <marker id="DefaultArrow5" markerUnits="strokeWidth" viewBox="0 0 1 1" markerWidth="1" markerHeight="1" overflow="visible" orient="auto">
   <!-- REF_ARROW_SPOT -->
   <g transform="scale(0.0092592592)">
    <path d="M -54, 0 C -54,29.807 -29.807,54 0,54 C 29.807,54 54,29.807 54,0 C 54,-29.807 29.807,-54 0,-54 C -29.807,-54 -54,-29.807 -54,0 z"/>
   </g>
  </marker>
  <marker id="DefaultArrow6" markerUnits="strokeWidth" viewBox="0 0 1 1" markerWidth="1" markerHeight="1" overflow="visible" orient="auto">
   <!-- REF_ARROW_DIAMOND -->
   <g transform="scale(0.0092592592)">
    <path d="M -63,0 L 0,63 L 63,0 L 0,-63 z"/>
   </g>
  </marker>
  <marker id="DefaultArrow7" markerUnits="strokeWidth" viewBox="0 0 1 1" markerWidth="1" markerHeight="1" overflow="visible" orient="auto">
   <!-- REF_ARROW_FEATHER -->
   <g transform="scale(0.0092592592)">
    <path d="M 18,-54 L 108,-54 L 63,0 L 108,54 L 18, 54 L -36,0 z"/>
   </g>
  </marker>
  <marker id="DefaultArrow8" markerUnits="strokeWidth" viewBox="0 0 1 1" markerWidth="1" markerHeight="1" overflow="visible" orient="auto">
   <!-- REF_ARROW_FEATHER2 -->
   <g transform="scale(0.0092592592)">
    <path d="M -36,0 L 18,-54 L 54,-54 L 18,-18 L 27,-18 L 63,-54 L 99,-54 L 63,-18 L 72,-18 L 108,-54 L 144,-54 L 90,0 L 144,54 L 108,54 L 72,18 L 63,18 L 99,54 L 63,54 L 27,18 L 18,18 L 54,54 L 18,54 z"/>
   </g>
  </marker>
  <marker id="DefaultArrow9" markerUnits="strokeWidth" viewBox="0 0 1 1" markerWidth="1" markerHeight="1" overflow="visible" orient="auto">
   <!-- REF_ARROW_HOLLOWDIAMOND -->
   <g transform="scale(0.0092592592)">
    <path d="M 0,45 L -45,0 L 0, -45 L 45, 0 z M 0, 63 L-63, 0 L 0, -63 L 63, 0 z"/>
   </g>
  </marker>
  <filter id="StainedFilter">
   <feBlend mode="multiply" in2="BackgroundImage" in="SourceGraphic" result="blend"/>
   <feComposite in="blend" in2="SourceAlpha" operator="in" result="comp"/>
  </filter>
  <filter id="BleachFilter">
   <feBlend mode="screen" in2="BackgroundImage" in="SourceGraphic" result="blend"/>
   <feComposite in="blend" in2="SourceAlpha" operator="in" result="comp"/>
  </filter>
  <filter id="InvertTransparencyBitmapFilter">
   <feComponentTransfer>
    <feFuncR type="gamma" amplitude="1.055" exponent=".416666666" offset="-0.055"/>
    <feFuncG type="gamma" amplitude="1.055" exponent=".416666666" offset="-0.055"/>
    <feFuncB type="gamma" amplitude="1.055" exponent=".416666666" offset="-0.055"/>
   </feComponentTransfer>
   <feComponentTransfer>
    <feFuncR type="linear" slope="-1" intercept="1"/>
    <feFuncG type="linear" slope="-1" intercept="1"/>
    <feFuncB type="linear" slope="-1" intercept="1"/>
    <feFuncA type="linear" slope="1" intercept="0"/>
   </feComponentTransfer>
   <feComponentTransfer>
    <feFuncR type="gamma" amplitude="1" exponent="2.4" offset="0"/>
    <feFuncG type="gamma" amplitude="1" exponent="2.4" offset="0"/>
    <feFuncB type="gamma" amplitude="1" exponent="2.4" offset="0"/>
   </feComponentTransfer>
  </filter>
 </defs>
 <g id="Document" fill="none" stroke="black" font-family="Times New Roman" font-size="16" transform="scale(1 -1)">
  <g id="Spread" transform="translate(0 -32.25)">
   <g id="Layer 1">
    <g id="Group" stroke="none">
     <path d="M 1.8,1.182 C 1.8,1.594 2.135,1.929 2.547,1.929 L 164.813,1.929 L 164.966,1.963 C 165.071,1.994 165.124,2.024 165.148,2.041 L 165.164,2.054 L 165.172,2.092 C 165.176,2.125 165.177,2.182 165.162,2.271 C 165.158,2.298 165.155,2.325 165.153,2.352 C 165.054,4.105 164.907,5.861 164.727,7.618 L 164.104,12.848 L 163.779,13.973 C 162.945,16.492 161.744,17.694 160.198,17.802 C 146.983,18.562 138.951,14.393 136.539,4.489 C 136.441,4.088 136.037,3.842 135.637,3.939 C 135.236,4.037 134.99,4.441 135.087,4.842 C 135.633,7.083 136.448,9.048 137.516,10.748 L 132.318,29.096 C 132.256,29.316 132.297,29.553 132.432,29.738 C 133.029,30.561 133.77,31.385 134.79,32.204 C 134.821,32.23 134.855,32.252 134.89,32.272 C 135.6,32.674 136.376,32.6 137.103,32.241 C 137.131,32.228 137.158,32.211 137.184,32.194 C 138.786,31.135 139.988,30.063 140.922,28.98 C 140.974,28.919 141.016,28.85 141.047,28.776 L 145.708,17.436 L 145.706,17.441 C 149.663,19.039 154.567,19.622 160.293,19.293 C 163.137,19.094 164.71,16.573 165.563,13.177 C 165.57,13.149 165.576,13.121 165.579,13.093 C 165.606,12.889 165.633,12.685 165.659,12.481 C 168.855,12.378 171.993,12.099 175.069,11.631 C 175.256,11.602 175.415,11.482 175.494,11.311 C 175.877,10.482 176.098,9.65 176.198,8.821 C 176.234,8.518 176.02,8.241 175.717,8.199 C 172.415,7.747 169.238,7.427 166.258,7.31 C 166.419,5.687 166.55,4.062 166.64,2.436 L 166.656,1.92 C 166.634,1.726 166.58,1.536 166.486,1.357 C 166.447,1.284 166.403,1.215 166.354,1.151 C 165.999,0.683 165.446,0.518 165.013,0.446 C 164.972,0.439 164.931,0.435 164.89,0.435 L 2.547,0.435 C 2.135,0.435 1.8,0.77 1.8,1.182 Z M 152.586,5.599 C 149.741,7.317 146.679,8.251 143.435,8.55 C 143.127,8.578 142.9,8.851 142.928,9.159 C 142.956,9.467 143.229,9.694 143.537,9.666 C 146.935,9.354 150.163,8.372 153.165,6.559 C 153.43,6.399 153.515,6.054 153.355,5.789 C 153.195,5.525 152.85,5.439 152.586,5.599 Z M 174.24,9.134 L 174.998,9.234 L 174.872,9.765 C 174.822,9.944 174.765,10.124 174.699,10.303 L 174.596,10.566 L 173.707,10.694 C 171.117,11.045 168.482,11.263 165.803,11.355 C 165.925,10.38 166.039,9.404 166.144,8.427 C 168.699,8.524 171.413,8.775 174.24,9.134 Z M 137.519,10.741 L 137.516,10.748 L 137.519,10.741 Z M 138.629,12.303 L 138.627,12.309 L 138.629,12.303 Z M 139.644,13.457 L 139.648,13.442 L 134.662,30.077 C 134.444,29.852 134.245,29.628 134.061,29.404 L 133.858,29.141 L 138.627,12.309 C 138.949,12.71 139.288,13.092 139.644,13.457 Z M 144.341,16.83 L 139.716,28.084 L 139.112,28.733 C 138.504,29.342 137.779,29.958 136.903,30.577 L 136.412,30.913 L 136.163,31.012 C 135.997,31.059 135.869,31.057 135.765,31.029 L 135.666,30.988 L 135.09,30.493 C 135.047,30.453 135.005,30.413 134.963,30.374 L 139.946,13.75 L 139.944,13.757 C 141.212,14.991 142.682,16.012 144.341,16.83 Z M 144.342,16.829 L 144.341,16.83 L 144.342,16.829 Z" fill="#6e7681" fill-rule="evenodd" stroke-width="0.249" marker-start="none" marker-end="none" stroke-miterlimit="79.8403193612775"/>
     <path d="M 73.507,4.818 C 73.27,4.953 73.084,5.132 72.947,5.355 C 72.809,5.578 72.738,5.825 72.735,6.095 L 72.671,21.449 C 72.673,21.718 72.744,21.965 72.884,22.188 C 73.024,22.412 73.215,22.591 73.46,22.725 C 73.706,22.859 73.988,22.929 74.308,22.932 C 74.589,22.929 74.848,22.859 75.08,22.725 C 75.314,22.591 75.5,22.412 75.641,22.188 C 75.781,21.965 75.853,21.718 75.856,21.449 L 75.856,20.907 C 76.402,21.598 77.07,22.135 77.86,22.518 C 78.651,22.902 79.512,23.098 80.444,23.104 C 81.695,23.098 82.797,22.81 83.752,22.24 C 84.706,21.67 85.454,20.848 85.995,19.773 C 86.535,18.698 86.811,17.402 86.82,15.885 C 86.811,14.367 86.535,13.069 85.995,11.989 C 85.454,10.911 84.706,10.084 83.752,9.509 C 82.797,8.933 81.695,8.644 80.444,8.638 C 79.543,8.64 78.701,8.829 77.915,9.205 C 77.13,9.581 76.445,10.134 75.856,10.863 L 75.921,6.095 C 75.919,5.825 75.846,5.578 75.703,5.355 C 75.561,5.132 75.368,4.953 75.127,4.818 C 74.886,4.684 74.614,4.615 74.314,4.611 C 74.013,4.615 73.744,4.684 73.507,4.818 Z M 90.388,4.818 C 90.152,4.953 89.966,5.132 89.828,5.355 C 89.69,5.578 89.62,5.825 89.617,6.095 L 89.552,21.449 C 89.555,21.718 89.626,21.965 89.765,22.188 C 89.906,22.412 90.097,22.591 90.342,22.725 C 90.587,22.859 90.87,22.929 91.19,22.932 C 91.471,22.929 91.729,22.859 91.962,22.725 C 92.195,22.591 92.382,22.412 92.523,22.188 C 92.663,21.965 92.735,21.718 92.738,21.449 L 92.738,20.907 C 93.283,21.598 93.952,22.135 94.742,22.518 C 95.532,22.902 96.393,23.098 97.326,23.104 C 98.577,23.098 99.679,22.81 100.634,22.24 C 101.588,21.67 102.336,20.848 102.876,19.773 C 103.417,18.698 103.693,17.402 103.702,15.885 C 103.693,14.367 103.417,13.069 102.876,11.989 C 102.336,10.911 101.588,10.084 100.634,9.509 C 99.679,8.933 98.577,8.644 97.326,8.638 C 96.425,8.64 95.583,8.829 94.797,9.205 C 94.012,9.581 93.326,10.134 92.738,10.863 L 92.803,6.095 C 92.801,5.825 92.728,5.578 92.585,5.355 C 92.443,5.132 92.25,4.953 92.008,4.818 C 91.768,4.684 91.496,4.615 91.196,4.611 C 90.895,4.615 90.626,4.684 90.388,4.818 Z M 6.52,9.106 C 5.65,9.462 4.898,9.965 4.263,10.614 C 3.629,11.263 3.139,12.027 2.793,12.909 C 2.448,13.789 2.272,14.756 2.268,15.81 C 2.272,16.857 2.448,17.819 2.793,18.696 C 3.139,19.573 3.629,20.335 4.263,20.982 C 4.898,21.629 5.65,22.131 6.52,22.486 C 7.39,22.843 8.352,23.023 9.405,23.029 C 10.113,23.026 10.77,22.948 11.379,22.795 C 11.986,22.642 12.519,22.426 12.978,22.149 C 13.436,21.872 13.796,21.548 14.057,21.175 C 14.128,21.088 14.179,20.99 14.211,20.882 C 14.242,20.774 14.257,20.662 14.257,20.547 C 14.253,20.279 14.182,20.048 14.045,19.852 C 13.909,19.655 13.733,19.504 13.517,19.397 C 13.301,19.29 13.072,19.236 12.83,19.235 C 12.672,19.234 12.517,19.257 12.366,19.302 C 12.215,19.348 12.075,19.42 11.945,19.52 C 11.588,19.791 11.21,19.991 10.811,20.122 C 10.411,20.254 9.99,20.32 9.548,20.319 C 8.715,20.312 7.99,20.119 7.371,19.74 C 6.753,19.36 6.273,18.833 5.93,18.159 C 5.588,17.485 5.414,16.702 5.409,15.81 C 5.414,14.919 5.588,14.133 5.93,13.454 C 6.273,12.775 6.753,12.244 7.371,11.86 C 7.99,11.476 8.715,11.28 9.548,11.273 C 10.002,11.274 10.427,11.344 10.821,11.484 C 11.215,11.624 11.59,11.829 11.945,12.101 C 12.087,12.2 12.231,12.273 12.377,12.318 C 12.522,12.364 12.673,12.387 12.83,12.386 C 13.081,12.385 13.317,12.328 13.537,12.216 C 13.757,12.104 13.936,11.948 14.073,11.748 C 14.21,11.547 14.281,11.313 14.286,11.045 C 14.286,10.87 14.249,10.699 14.175,10.532 C 14.101,10.364 13.985,10.221 13.829,10.104 C 13.332,9.64 12.72,9.27 11.991,8.991 C 11.263,8.713 10.401,8.571 9.405,8.563 C 8.352,8.568 7.39,8.749 6.52,9.106 Z M 19.578,8.847 C 19.012,9.037 18.495,9.321 18.026,9.701 C 17.558,10.081 17.181,10.556 16.898,11.127 C 16.615,11.698 16.47,12.365 16.462,13.128 C 16.47,13.919 16.615,14.597 16.898,15.164 C 17.181,15.732 17.558,16.195 18.026,16.555 C 18.495,16.916 19.012,17.182 19.578,17.353 C 20.143,17.524 20.711,17.609 21.282,17.607 C 22.206,17.607 23.153,17.558 23.919,17.263 C 24.672,17.093 25.085,16.971 25.799,16.71 L 25.708,17.949 C 25.704,18.475 25.568,18.926 25.298,19.304 C 25.029,19.683 24.656,19.974 24.177,20.177 C 23.699,20.382 23.143,20.485 22.51,20.487 C 21.911,20.489 21.339,20.405 20.793,20.237 C 20.248,20.068 19.725,19.8 19.227,19.432 C 19.14,19.373 19.043,19.326 18.935,19.289 C 18.827,19.252 18.715,19.234 18.599,19.232 C 18.405,19.233 18.217,19.282 18.036,19.378 C 17.854,19.474 17.705,19.611 17.587,19.79 C 17.468,19.968 17.406,20.182 17.402,20.43 C 17.403,20.546 17.423,20.662 17.463,20.779 C 17.503,20.896 17.559,20.998 17.63,21.086 C 17.907,21.428 18.257,21.723 18.681,21.968 C 19.105,22.214 19.566,22.415 20.066,22.571 C 20.566,22.728 21.069,22.843 21.575,22.917 C 22.081,22.992 22.554,23.029 22.996,23.028 C 23.766,23.031 24.495,22.945 25.185,22.769 C 25.875,22.594 26.487,22.311 27.023,21.922 C 27.559,21.532 27.981,21.018 28.288,20.38 C 28.596,19.741 28.753,18.959 28.76,18.035 L 28.76,10.246 C 28.748,9.821 28.6,9.466 28.314,9.18 C 28.029,8.895 27.674,8.746 27.249,8.734 L 27.077,8.734 C 26.935,8.732 26.757,8.775 26.545,8.863 C 26.333,8.95 26.143,9.096 25.975,9.301 C 25.807,9.506 25.719,9.782 25.708,10.132 C 25.709,10.143 25.709,10.185 25.708,10.26 C 25.709,10.335 25.709,10.378 25.708,10.389 C 25.199,9.801 24.562,9.351 23.796,9.038 C 23.029,8.725 22.192,8.566 21.282,8.563 C 20.711,8.563 20.143,8.658 19.578,8.847 Z M 34.154,9.48 C 33.552,10.087 33.251,10.97 33.248,12.129 L 33.248,20.005 L 32.478,19.988 C 32.111,19.997 31.803,20.129 31.554,20.385 C 31.305,20.639 31.176,20.964 31.165,21.358 C 31.176,21.725 31.305,22.032 31.554,22.281 C 31.803,22.53 32.111,22.66 32.478,22.67 L 33.248,22.687 L 33.248,25.113 C 33.259,25.538 33.41,25.893 33.701,26.18 C 33.993,26.466 34.364,26.614 34.817,26.626 C 35.24,26.614 35.591,26.466 35.868,26.18 C 36.146,25.893 36.289,25.538 36.299,25.113 L 36.299,22.687 L 38.693,22.692 C 39.059,22.683 39.362,22.552 39.603,22.297 C 39.844,22.042 39.969,21.717 39.977,21.323 C 39.969,20.957 39.844,20.648 39.603,20.399 C 39.362,20.15 39.059,20.02 38.693,20.011 L 36.299,20.005 L 36.299,12.9 C 36.31,12.37 36.439,11.967 36.688,11.69 C 36.937,11.414 37.246,11.275 37.612,11.273 C 37.715,11.277 37.823,11.291 37.937,11.316 C 38.051,11.341 38.152,11.356 38.24,11.359 C 38.658,11.351 38.986,11.225 39.221,10.981 C 39.458,10.737 39.578,10.425 39.582,10.046 C 39.588,9.585 39.369,9.224 38.926,8.963 C 38.482,8.701 37.778,8.568 36.813,8.563 C 35.641,8.567 34.755,8.873 34.154,9.48 Z M 109.889,9.082 C 109.013,9.424 108.251,9.913 107.602,10.549 C 106.953,11.186 106.448,11.948 106.089,12.837 C 105.731,13.725 105.548,14.716 105.543,15.812 C 105.548,16.817 105.721,17.755 106.062,18.624 C 106.403,19.495 106.886,20.26 107.509,20.918 C 108.133,21.577 108.87,22.092 109.721,22.463 C 110.572,22.833 111.509,23.022 112.534,23.029 C 113.613,23.023 114.582,22.819 115.441,22.416 C 116.301,22.013 117.029,21.446 117.626,20.713 C 118.223,19.981 118.665,19.117 118.954,18.122 C 119.044,17.835 119.122,17.534 119.19,17.221 C 119.258,16.907 119.293,16.599 119.297,16.297 C 119.294,16.028 119.227,15.78 119.097,15.557 C 118.965,15.334 118.788,15.155 118.566,15.021 C 118.343,14.886 118.092,14.817 117.813,14.814 L 108.739,14.814 C 108.809,14.12 109.023,13.487 109.382,12.915 C 109.742,12.344 110.233,11.886 110.855,11.543 C 111.478,11.2 112.218,11.024 113.076,11.016 C 113.583,11.016 114.103,11.093 114.639,11.247 C 115.173,11.401 116.096,12.116 116.575,12.416 C 116.675,12.474 116.78,12.516 116.888,12.545 C 116.996,12.573 117.101,12.588 117.202,12.588 C 117.416,12.586 117.62,12.533 117.814,12.427 C 118.009,12.321 118.168,12.175 118.293,11.987 C 118.418,11.799 118.482,11.58 118.486,11.332 C 118.479,11.018 118.352,10.738 118.105,10.492 C 117.857,10.245 117.412,9.793 117.009,9.612 C 116.606,9.431 115.869,9.033 115.395,8.915 C 114.921,8.797 114.454,8.708 113.993,8.65 C 113.534,8.592 113.123,8.563 112.762,8.563 C 111.723,8.567 110.765,8.74 109.889,9.082 Z M 60.439,8.997 C 59.873,9.186 59.356,9.471 58.887,9.85 C 58.419,10.23 58.042,10.705 57.759,11.276 C 57.476,11.847 57.331,12.514 57.323,13.278 C 57.331,14.068 57.476,14.747 57.759,15.314 C 58.042,15.881 58.419,16.345 58.887,16.705 C 59.356,17.065 59.873,17.331 60.439,17.502 C 61.004,17.673 61.573,17.758 62.143,17.756 C 63.067,17.756 64.014,17.708 64.78,17.412 C 65.533,17.242 65.946,17.121 66.66,16.859 L 66.57,18.098 C 66.565,18.624 66.429,19.076 66.159,19.453 C 65.89,19.832 65.517,20.123 65.038,20.327 C 64.56,20.531 64.004,20.634 63.371,20.637 C 62.772,20.639 62.2,20.555 61.654,20.387 C 61.109,20.218 60.587,19.949 60.088,19.581 C 60.001,19.523 59.904,19.476 59.796,19.439 C 59.688,19.402 59.576,19.383 59.461,19.382 C 59.266,19.383 59.079,19.431 58.897,19.527 C 58.716,19.623 58.566,19.761 58.448,19.939 C 58.329,20.117 58.267,20.331 58.263,20.579 C 58.264,20.695 58.284,20.812 58.324,20.929 C 58.364,21.045 58.42,21.147 58.492,21.236 C 58.768,21.578 59.119,21.872 59.542,22.117 C 59.966,22.363 60.427,22.564 60.927,22.721 C 61.427,22.877 61.93,22.992 62.436,23.067 C 62.942,23.141 63.416,23.178 63.857,23.177 C 64.627,23.18 65.356,23.094 66.046,22.918 C 66.736,22.743 67.349,22.46 67.884,22.071 C 68.42,21.682 68.842,21.168 69.15,20.529 C 69.458,19.89 69.615,19.109 69.621,18.184 L 69.621,10.395 C 69.609,9.971 69.461,9.616 69.175,9.33 C 68.89,9.044 68.535,8.896 68.11,8.884 L 67.939,8.884 C 67.796,8.882 67.618,8.924 67.406,9.012 C 67.194,9.099 67.004,9.245 66.836,9.45 C 66.668,9.655 66.579,9.932 66.57,10.281 C 66.57,10.292 66.57,10.335 66.57,10.41 C 66.57,10.485 66.57,10.527 66.57,10.538 C 66.061,9.951 65.423,9.5 64.657,9.187 C 63.89,8.874 63.053,8.716 62.143,8.713 C 61.573,8.713 61.004,8.807 60.439,8.997 Z M 122.343,9.177 C 122.067,9.463 121.923,9.819 121.912,10.244 L 121.912,21.377 C 121.915,21.647 121.983,21.893 122.117,22.117 C 122.25,22.341 122.434,22.52 122.669,22.654 C 122.903,22.789 123.174,22.858 123.481,22.861 C 123.75,22.858 123.997,22.789 124.22,22.654 C 124.443,22.52 124.622,22.341 124.757,22.117 C 124.891,21.893 124.961,21.647 124.963,21.377 L 124.986,20.1 C 125.105,20.265 127.228,23.447 129.05,22.939 C 131.082,22.341 129.947,19.921 128.93,20.07 C 127.765,19.562 125.584,19.144 124.957,16.276 L 124.963,10.244 C 124.953,9.819 124.804,9.463 124.518,9.177 C 124.232,8.891 123.877,8.742 123.453,8.731 L 123.395,8.731 C 122.971,8.742 122.621,8.891 122.343,9.177 Z M 42.987,9.252 C 42.707,9.538 42.561,9.893 42.552,10.318 L 42.552,21.449 C 42.554,21.718 42.622,21.965 42.756,22.188 C 42.89,22.412 43.074,22.591 43.308,22.725 C 43.543,22.859 43.814,22.929 44.121,22.932 C 44.39,22.929 44.637,22.859 44.86,22.725 C 45.083,22.591 45.262,22.412 45.396,22.188 C 45.531,21.965 45.6,21.718 45.603,21.449 L 45.603,20.879 C 45.91,21.247 46.302,21.6 46.779,21.937 C 47.256,22.274 47.805,22.551 48.424,22.767 C 49.044,22.983 49.721,23.096 50.456,23.104 C 51.94,23.094 53.052,22.706 53.793,21.941 C 54.536,21.175 54.906,20.089 54.906,18.681 L 54.906,10.318 C 54.895,9.893 54.745,9.538 54.457,9.252 C 54.168,8.965 53.804,8.817 53.366,8.805 C 52.929,8.817 52.57,8.965 52.289,9.252 C 52.01,9.538 51.864,9.893 51.855,10.318 L 51.855,17.568 C 51.852,18.268 51.737,18.825 51.511,19.239 C 51.285,19.653 50.966,19.951 50.552,20.131 C 50.139,20.31 49.651,20.398 49.086,20.393 C 48.579,20.389 48.102,20.3 47.657,20.129 C 47.211,19.958 46.813,19.735 46.462,19.459 C 46.111,19.183 45.825,18.886 45.603,18.567 L 45.603,10.318 C 45.593,9.893 45.443,9.538 45.154,9.252 C 44.865,8.965 44.502,8.817 44.064,8.805 C 43.627,8.817 43.268,8.965 42.987,9.252 Z M 24.316,11.02 C 24.891,11.251 25.355,11.602 25.708,12.072 L 25.79,15.051 C 25.377,15.27 24.842,15.27 24.307,15.415 C 23.773,15.464 23.121,15.497 22.453,15.497 C 21.905,15.495 21.415,15.398 20.982,15.204 C 20.549,15.011 20.207,14.733 19.955,14.372 C 19.703,14.011 19.575,13.577 19.569,13.071 C 19.575,12.584 19.703,12.161 19.955,11.803 C 20.207,11.445 20.549,11.168 20.982,10.972 C 21.415,10.776 21.905,10.676 22.453,10.674 C 23.121,10.673 23.742,10.789 24.316,11.02 Z M 65.177,11.169 C 65.753,11.4 66.217,11.752 66.57,12.222 L 66.651,15.2 C 66.238,15.419 65.703,15.419 65.168,15.565 C 64.634,15.614 63.982,15.647 63.314,15.647 C 62.766,15.645 62.276,15.547 61.843,15.353 C 61.41,15.16 61.068,14.883 60.816,14.522 C 60.564,14.16 60.436,13.727 60.43,13.221 C 60.436,12.733 60.564,12.31 60.816,11.952 C 61.068,11.595 61.41,11.318 61.843,11.122 C 62.276,10.925 62.766,10.826 63.314,10.823 C 63.982,10.823 64.603,10.938 65.177,11.169 Z M 83.951,15.021 C 84.364,17.519 82.853,19.916 80.578,20.37 C 78.304,20.824 76.12,19.165 75.707,16.667 C 75.294,14.168 76.804,11.771 79.079,11.317 C 81.354,10.863 83.538,12.522 83.951,15.021 Z M 100.833,15.021 C 101.246,17.519 99.735,19.916 97.46,20.37 C 95.185,20.824 93.002,19.165 92.589,16.667 C 92.176,14.168 93.686,11.771 95.961,11.317 C 98.236,10.863 100.419,12.522 100.833,15.021 Z M 116.113,18.169 C 115.963,18.593 115.735,18.987 115.43,19.35 C 115.124,19.713 114.733,20.007 114.255,20.231 C 113.776,20.455 113.203,20.57 112.534,20.577 C 111.907,20.571 111.362,20.458 110.898,20.239 C 110.434,20.019 110.046,19.73 109.734,19.371 C 109.423,19.012 109.184,18.62 109.015,18.193 C 108.848,17.768 108.746,17.345 108.711,16.925 L 116.357,16.925 C 116.344,17.331 116.263,17.745 116.113,18.169 Z" fill="#005395" fill-rule="nonzero" stroke-linejoin="round" stroke-linecap="round" stroke-width="0.714" marker-start="none" marker-end="none" stroke-miterlimit="79.8403193612775"/>
     <path d="M 169.222,-1.635 C 168.089,-1.499 167.28,-0.469 167.416,0.664 C 167.552,1.797 168.582,2.606 169.715,2.471 C 170.849,2.335 171.657,1.304 171.522,0.172 C 171.386,-0.962 170.356,-1.771 169.222,-1.635 Z M 171.151,0.216 C 171.262,1.145 170.599,1.989 169.671,2.1 C 168.742,2.211 167.898,1.548 167.787,0.62 C 167.675,-0.309 168.338,-1.153 169.267,-1.264 C 170.196,-1.376 171.04,-0.712 171.151,0.216 Z M 168.606,-0.555 L 168.606,1.529 L 169.491,1.529 C 169.713,1.529 169.875,1.51 169.976,1.472 C 170.077,1.435 170.158,1.368 170.218,1.272 C 170.279,1.177 170.309,1.068 170.309,0.945 C 170.309,0.788 170.264,0.659 170.172,0.557 C 170.08,0.455 169.942,0.391 169.759,0.365 C 169.85,0.311 169.925,0.253 169.984,0.19 C 170.044,0.126 170.124,0.014 170.224,-0.149 L 170.479,-0.555 L 169.976,-0.555 L 169.671,-0.102 C 169.563,0.06 169.489,0.162 169.449,0.204 C 169.409,0.247 169.367,0.275 169.323,0.292 C 169.278,0.307 169.208,0.315 169.111,0.315 L 169.026,0.315 L 169.026,-0.555 L 168.606,-0.555 Z M 169.715,0.672 C 169.765,0.69 169.805,0.719 169.833,0.761 C 169.861,0.802 169.876,0.855 169.876,0.918 C 169.876,0.988 169.858,1.044 169.82,1.087 C 169.782,1.13 169.73,1.158 169.661,1.169 C 169.627,1.174 169.525,1.176 169.355,1.176 L 169.026,1.176 L 169.026,0.647 L 169.337,0.647 C 169.539,0.647 169.665,0.656 169.715,0.672 Z" fill-rule="nonzero" stroke-linejoin="round" fill="#6e7681" stroke-linecap="round" stroke-width="0.062" marker-start="none" marker-end="none" stroke-miterlimit="79.8403193612775"/>
    </g>
   </g>
  </g>
 </g>
</svg>
